<svg xmlns="http://www.w3.org/2000/svg" xmlns:xlink="http://www.w3.org/1999/xlink" x="0px" y="0px" viewBox="0 0 400.6 566.3" xml:space="preserve">
	<path d="M369.4,26H274c-7.6-0.2-24.6-1.3-44.3-6.9C208.6,12.5,200.3,0,200.3,0s-8.3,12.5-29.5,19c-19.7,5.6-36.6,6.8-44.2,7H31.2
		C14,26,0,40,0,57.2v451.9c0,17.2,14,31.2,31.2,31.2h95.4c7.6,0.2,24.6,1.3,44.3,6.9c21.1,6.6,29.4,19.1,29.4,19.1s8.3-12.5,29.5-19
		c19.7-5.6,36.6-6.8,44.2-7h95.4c17.2,0,31.2-14,31.2-31.2V57.2C400.6,40,386.6,26,369.4,26z"/>
</svg>
